<svg width="73" height="95" viewBox="0 0 73 95" fill="none" xmlns="http://www.w3.org/2000/svg">
<mask id="mask0_332_829" style="mask-type:luminance" maskUnits="userSpaceOnUse" x="0" y="0" width="73" height="95">
<path d="M0.560059 0H72.7421V94.956H0.560059V0Z" fill="white"/>
</mask>
<g mask="url(#mask0_332_829)">
<path d="M72.4827 24.7724C72.4405 21.6381 72.3199 19.0527 72.1972 17.2815C72.1771 16.8352 71.7891 16.4673 71.3428 16.4673C69.0007 16.407 66.8636 15.4702 65.2352 13.9845C63.6067 12.4787 62.4869 10.422 62.1612 8.10198L62.1411 8.01955C62.0386 7.59334 61.9783 7.12492 61.9582 6.63639C61.918 6.16796 61.53 5.80206 61.0414 5.82217C60.6152 5.84227 60.1669 5.86238 59.7588 5.86238C58.8038 5.86238 57.4187 5.53669 55.7902 4.98784C53.3476 4.19373 50.3561 2.95129 47.0791 1.91392C43.8001 0.854427 40.2396 0 36.6149 0C31.7919 0 27.0473 1.5058 22.9762 2.9714C20.9417 3.7052 19.0679 4.43699 17.4395 4.96774C15.8111 5.49648 14.4279 5.84227 13.4709 5.84227C13.0427 5.84227 12.6165 5.82217 12.1883 5.80206C11.7199 5.78196 11.3138 6.14785 11.2736 6.61628C11.2313 7.10481 11.1911 7.57324 11.0886 7.99945L11.0685 8.08187C10.7428 10.4019 9.623 12.4787 7.99457 13.9644C6.36613 15.4702 4.22906 16.3869 1.88893 16.4472C1.44061 16.4673 1.07471 16.8131 1.0345 17.2614C0.911869 19.0326 0.789234 21.618 0.749025 24.7523C0.686702 28.9661 0.586182 33.2623 0.586182 37.5365C0.586182 46.8588 1.05461 56.0806 3.57768 64.2228C4.84022 68.2939 6.6114 72.0795 9.11437 75.459C11.5992 78.8385 14.8139 81.7898 18.9051 84.15C25.5817 88.0181 29.8981 90.6437 32.5237 92.3123C33.8465 93.1486 34.7432 93.7377 35.3121 94.1257C35.5976 94.3086 35.8006 94.4514 35.9233 94.5318C35.9836 94.572 36.0258 94.6142 36.066 94.6343L36.1062 94.6544C36.4118 94.8776 36.84 94.8776 37.1456 94.6544C37.3487 94.5117 41.3795 91.6408 54.3246 84.15C58.4158 81.7898 61.6325 78.8385 64.1153 75.459C67.8608 70.3907 69.9777 64.3856 71.18 57.9121C72.3802 51.4385 72.6455 44.4986 72.6455 37.5164C72.6455 33.2623 72.543 28.9661 72.4827 24.7724ZM67.9834 63.694C66.7631 67.6224 65.0723 71.225 62.7121 74.4196C60.3498 77.6162 57.3382 80.3845 53.4501 82.6241C42.6823 88.8524 38.0402 91.9062 36.6149 92.8632C35.1915 91.8861 30.5494 88.8323 19.7816 82.6241C15.8935 80.3644 12.8799 77.5961 10.5197 74.4196C6.9773 69.6368 4.94275 63.8971 3.78274 57.6065C2.62072 51.3159 2.35736 44.4764 2.35736 37.5365C2.35736 33.3026 2.45788 29.0063 2.5202 24.7945C2.56041 22.1065 2.66294 19.8468 2.76346 18.1581C5.20612 17.9128 7.42562 16.8553 9.17669 15.2671C11.0886 13.4959 12.4135 11.0935 12.7995 8.34524C12.8598 8.10198 12.902 7.8366 12.9422 7.57324C13.1252 7.57324 13.288 7.57324 13.4709 7.57324C14.7938 7.57324 16.2996 7.16512 17.9904 6.61628C20.5335 5.78196 23.5069 4.55963 26.6814 3.54235C29.878 2.52508 33.2776 1.73097 36.6149 1.73097C41.074 1.73097 45.6336 3.13424 49.6625 4.59983C51.6789 5.33364 53.5506 6.04532 55.2615 6.61628C56.9502 7.16512 58.456 7.57324 59.7809 7.57324C59.9638 7.57324 60.1468 7.57324 60.3096 7.57324C60.3498 7.8366 60.39 8.08188 60.4524 8.34524C60.8384 11.0734 62.1612 13.4959 64.0751 15.2671C65.8061 16.8553 68.0437 17.9128 70.5085 18.1581C70.609 19.8468 70.7115 22.1065 70.7517 24.7945C70.812 29.0063 70.9146 33.2824 70.9146 37.5365C70.8945 46.7784 70.4059 55.8554 67.9834 63.694Z" fill="#004AAD"/>
</g>
<mask id="mask1_332_829" style="mask-type:luminance" maskUnits="userSpaceOnUse" x="10" y="27" width="53" height="36">
<path d="M10.2986 27.4241H62.7946V62.1561H10.2986V27.4241Z" fill="white"/>
</mask>
<g mask="url(#mask1_332_829)">
<path d="M59.9178 27.5126H13.2701C13.073 27.5126 12.878 27.5327 12.687 27.5709C12.494 27.6091 12.3071 27.6674 12.1261 27.7417C11.9432 27.8161 11.7723 27.9086 11.6095 28.0172C11.4466 28.1277 11.2938 28.2504 11.1551 28.3891C11.0164 28.5278 10.8938 28.6786 10.7832 28.8435C10.6746 29.0063 10.5821 29.1772 10.5078 29.3601C10.4334 29.5411 10.3751 29.728 10.3369 29.919C10.2987 30.112 10.2786 30.307 10.2786 30.502V58.9354C10.2786 59.1324 10.2987 59.3254 10.3369 59.5184C10.3751 59.7114 10.4334 59.8984 10.5078 60.0793C10.5821 60.2602 10.6746 60.4331 10.7832 60.596C10.8938 60.7588 11.0164 60.9096 11.1551 61.0483C11.2938 61.187 11.4466 61.3117 11.6095 61.4202C11.7723 61.5288 11.9432 61.6213 12.1261 61.6977C12.3071 61.7721 12.494 61.8284 12.687 61.8666C12.878 61.9068 13.073 61.9249 13.2701 61.9249H59.9178C60.1128 61.9249 60.3078 61.9068 60.5008 61.8666C60.6938 61.8284 60.8807 61.7721 61.0617 61.6977C61.2426 61.6213 61.4155 61.5288 61.5784 61.4202C61.7412 61.3117 61.892 61.187 62.0307 61.0483C62.1694 60.9096 62.2941 60.7588 62.4026 60.596C62.5112 60.4331 62.6037 60.2602 62.6801 60.0793C62.7545 59.8984 62.8107 59.7114 62.8489 59.5184C62.8892 59.3254 62.9072 59.1324 62.9072 58.9354V30.502C62.9072 30.307 62.8892 30.112 62.8489 29.919C62.8107 29.728 62.7545 29.5411 62.6801 29.3601C62.6037 29.1772 62.5112 29.0063 62.4026 28.8435C62.2941 28.6786 62.1694 28.5278 62.0307 28.3891C61.892 28.2504 61.7412 28.1277 61.5784 28.0172C61.4155 27.9086 61.2426 27.8161 61.0617 27.7417C60.8807 27.6653 60.6938 27.6091 60.5008 27.5709C60.3078 27.5327 60.1128 27.5126 59.9178 27.5126ZM44.8638 44.7197L61.2889 30.0799C61.3331 30.2166 61.3572 30.3573 61.3592 30.502V58.9354C61.3572 59.0801 61.3331 59.2208 61.2889 59.3596L44.8638 44.7197ZM59.9157 29.0626C59.97 29.0646 60.0243 29.0706 60.0786 29.0787L37.5479 49.1627C37.4152 49.2814 37.2664 49.3718 37.1015 49.4341C36.9367 49.4965 36.7658 49.5286 36.5889 49.5286C36.412 49.5286 36.2431 49.4965 36.0762 49.4341C35.9114 49.3718 35.7646 49.2814 35.6319 49.1627L13.1052 29.0787C13.1595 29.0706 13.2138 29.0646 13.2701 29.0626H59.9157ZM11.899 59.3596C11.8547 59.2208 11.8306 59.0801 11.8286 58.9354V30.502C11.8306 30.3573 11.8547 30.2166 11.899 30.0799L28.3221 44.7197L11.899 59.3596ZM13.2701 60.3768C13.2138 60.3748 13.1595 60.3688 13.1052 60.3608L29.4841 45.7591L34.6046 50.3207C34.7413 50.4414 34.8861 50.5479 35.0429 50.6424C35.1977 50.7369 35.3605 50.8173 35.5294 50.8816C35.7003 50.946 35.8732 50.9962 36.0521 51.0284C36.231 51.0606 36.412 51.0787 36.5929 51.0787C36.7759 51.0787 36.9548 51.0606 37.1337 51.0284C37.3126 50.9962 37.4875 50.946 37.6564 50.8816C37.8273 50.8173 37.9901 50.7369 38.1449 50.6424C38.2997 50.5479 38.4465 50.4414 38.5812 50.3207L43.7017 45.7571L60.0806 60.3587C60.0263 60.3688 59.972 60.3728 59.9157 60.3768H13.2701Z" fill="#004AAD"/>
</g>
</svg>
